<svg xmlns="http://www.w3.org/2000/svg" xmlns:xlink="http://www.w3.org/1999/xlink" width="64" zoomAndPan="magnify" viewBox="0 0 48 48" height="64" preserveAspectRatio="xMidYMid meet" version="1.2"><defs><clipPath id="b4d32d5eca"><path d="M 0.488281 0 L 47.507812 0 L 47.507812 47.019531 L 0.488281 47.019531 Z M 0.488281 0 "/></clipPath><clipPath id="742557f461"><path d="M 24 0 C 11.015625 0 0.488281 10.527344 0.488281 23.511719 C 0.488281 36.496094 11.015625 47.019531 24 47.019531 C 36.984375 47.019531 47.511719 36.496094 47.511719 23.511719 C 47.511719 10.527344 36.984375 0 24 0 Z M 24 0 "/></clipPath></defs><g id="2c1188703f"><g clip-rule="nonzero" clip-path="url(#b4d32d5eca)"><g clip-rule="nonzero" clip-path="url(#742557f461)"><path style=" stroke:none;fill-rule:nonzero;fill:#000000;fill-opacity:1;" d="M 0.488281 0 L 47.511719 0 L 47.511719 47.019531 L 0.488281 47.019531 Z M 0.488281 0 "/></g></g><path style=" stroke:none;fill-rule:evenodd;fill:#ffffff;fill-opacity:1;" d="M 16.488281 38.710938 C 16.351562 38.703125 16.214844 38.695312 16.082031 38.683594 C 15.324219 38.613281 14.632812 38.367188 14.015625 37.921875 C 12.953125 37.152344 12.277344 36.128906 12.003906 34.839844 C 11.902344 34.359375 11.875 33.871094 11.90625 33.378906 C 11.941406 32.800781 12.058594 32.238281 12.242188 31.691406 C 12.535156 30.816406 12.976562 30.019531 13.535156 29.289062 C 13.957031 28.738281 14.433594 28.238281 14.960938 27.785156 C 15.453125 27.359375 15.902344 26.890625 16.320312 26.394531 C 16.847656 25.769531 17.324219 25.105469 17.796875 24.4375 C 18.210938 23.847656 18.621094 23.253906 19.0625 22.683594 C 19.394531 22.253906 19.746094 21.839844 20.136719 21.460938 C 20.625 20.988281 21.164062 20.585938 21.800781 20.328125 C 22.277344 20.132812 22.773438 20.027344 23.289062 20.019531 C 23.871094 20.003906 24.445312 20.0625 25.015625 20.199219 C 25.882812 20.414062 26.632812 20.835938 27.28125 21.449219 C 27.722656 21.871094 28.097656 22.347656 28.445312 22.847656 C 28.816406 23.378906 29.15625 23.925781 29.503906 24.46875 C 29.898438 25.082031 30.308594 25.683594 30.761719 26.25 C 31.214844 26.816406 31.714844 27.339844 32.261719 27.820312 C 32.921875 28.398438 33.511719 29.042969 34.011719 29.765625 C 34.4375 30.386719 34.78125 31.046875 35.023438 31.757812 C 35.214844 32.3125 35.332031 32.882812 35.363281 33.46875 C 35.410156 34.359375 35.253906 35.210938 34.851562 36.015625 C 34.476562 36.757812 33.933594 37.355469 33.253906 37.828125 C 32.753906 38.175781 32.214844 38.441406 31.621094 38.589844 C 31.410156 38.640625 31.195312 38.679688 30.980469 38.699219 C 30.949219 38.703125 30.921875 38.707031 30.890625 38.714844 C 30.863281 38.730469 30.832031 38.71875 30.800781 38.722656 C 30.777344 38.722656 30.75 38.714844 30.726562 38.730469 C 30.542969 38.730469 30.359375 38.730469 30.175781 38.730469 C 30.152344 38.710938 30.128906 38.722656 30.105469 38.722656 C 30.082031 38.722656 30.0625 38.722656 30.039062 38.722656 C 30.023438 38.722656 30.003906 38.722656 29.988281 38.722656 C 29.515625 38.707031 29.054688 38.605469 28.597656 38.5 C 27.824219 38.320312 27.066406 38.082031 26.292969 37.886719 C 25.671875 37.726562 25.039062 37.601562 24.402344 37.527344 C 23.957031 37.476562 23.511719 37.46875 23.066406 37.484375 C 22.710938 37.496094 22.359375 37.550781 22.011719 37.617188 C 21.320312 37.746094 20.648438 37.933594 19.972656 38.117188 C 19.257812 38.3125 18.542969 38.507812 17.808594 38.628906 C 17.511719 38.675781 17.214844 38.714844 16.910156 38.714844 C 16.847656 38.714844 16.789062 38.722656 16.722656 38.722656 C 16.644531 38.714844 16.566406 38.730469 16.488281 38.710938 Z M 30.144531 8.0625 C 31.140625 8.179688 31.898438 8.6875 32.480469 9.484375 C 32.878906 10.03125 33.128906 10.648438 33.285156 11.304688 C 33.417969 11.867188 33.46875 12.441406 33.449219 13.023438 C 33.414062 14.089844 33.164062 15.101562 32.699219 16.066406 C 32.378906 16.730469 31.964844 17.332031 31.4375 17.851562 C 30.96875 18.308594 30.4375 18.679688 29.816406 18.90625 C 29.378906 19.070312 28.929688 19.148438 28.464844 19.121094 C 27.660156 19.074219 26.980469 18.753906 26.40625 18.195312 C 25.914062 17.71875 25.582031 17.144531 25.351562 16.503906 C 25.191406 16.058594 25.089844 15.601562 25.039062 15.128906 C 25 14.808594 24.984375 14.484375 24.996094 14.160156 C 25.019531 13.398438 25.15625 12.660156 25.40625 11.9375 C 25.667969 11.171875 26.039062 10.464844 26.546875 9.832031 C 26.976562 9.300781 27.476562 8.851562 28.078125 8.519531 C 28.515625 8.277344 28.988281 8.117188 29.488281 8.0625 C 29.503906 8.054688 29.519531 8.058594 29.535156 8.054688 C 29.554688 8.054688 29.570312 8.054688 29.585938 8.054688 C 29.609375 8.050781 29.632812 8.0625 29.652344 8.046875 C 29.761719 8.046875 29.871094 8.046875 29.980469 8.046875 C 30 8.0625 30.023438 8.054688 30.046875 8.054688 C 30.0625 8.054688 30.078125 8.054688 30.09375 8.054688 C 30.109375 8.054688 30.128906 8.050781 30.144531 8.0625 Z M 7.230469 19.824219 C 7.246094 19.519531 7.300781 19.222656 7.378906 18.929688 C 7.535156 18.355469 7.789062 17.835938 8.179688 17.390625 C 8.621094 16.894531 9.167969 16.574219 9.820312 16.445312 C 10.351562 16.339844 10.875 16.382812 11.386719 16.542969 C 11.976562 16.722656 12.5 17.035156 12.964844 17.4375 C 13.6875 18.066406 14.203125 18.835938 14.5625 19.714844 C 14.75 20.175781 14.878906 20.65625 14.953125 21.148438 C 14.988281 21.386719 15.003906 21.625 15.007812 21.867188 C 15.015625 22.328125 14.972656 22.777344 14.855469 23.222656 C 14.707031 23.8125 14.449219 24.351562 14.042969 24.8125 C 13.574219 25.34375 12.992188 25.671875 12.296875 25.785156 C 11.78125 25.871094 11.28125 25.8125 10.785156 25.65625 C 10.125 25.4375 9.554688 25.070312 9.054688 24.589844 C 8.566406 24.125 8.179688 23.585938 7.878906 22.984375 C 7.582031 22.394531 7.375 21.773438 7.277344 21.121094 C 7.261719 21.003906 7.246094 20.886719 7.230469 20.773438 C 7.21875 20.71875 7.222656 20.667969 7.210938 20.613281 C 7.207031 20.59375 7.207031 20.570312 7.207031 20.546875 C 7.203125 20.519531 7.214844 20.492188 7.199219 20.464844 C 7.199219 20.320312 7.199219 20.179688 7.199219 20.039062 C 7.226562 20 7.210938 19.957031 7.214844 19.917969 C 7.21875 19.886719 7.210938 19.851562 7.230469 19.824219 Z M 14.222656 13.027344 C 14.226562 12.183594 14.347656 11.425781 14.628906 10.695312 C 14.839844 10.144531 15.132812 9.640625 15.539062 9.207031 C 15.976562 8.734375 16.492188 8.398438 17.121094 8.242188 C 17.746094 8.082031 18.363281 8.128906 18.96875 8.347656 C 19.5 8.539062 19.964844 8.84375 20.378906 9.230469 C 21.039062 9.84375 21.511719 10.582031 21.847656 11.414062 C 22.058594 11.941406 22.207031 12.488281 22.292969 13.050781 C 22.339844 13.367188 22.367188 13.691406 22.375 14.011719 C 22.378906 14.421875 22.355469 14.828125 22.289062 15.230469 C 22.148438 16.070312 21.863281 16.851562 21.355469 17.542969 C 21.039062 17.972656 20.652344 18.328125 20.183594 18.585938 C 19.65625 18.871094 19.089844 18.988281 18.496094 18.945312 C 17.957031 18.902344 17.457031 18.726562 16.996094 18.449219 C 16.390625 18.09375 15.898438 17.609375 15.492188 17.039062 C 15.007812 16.363281 14.675781 15.617188 14.464844 14.816406 C 14.351562 14.375 14.277344 13.929688 14.242188 13.476562 C 14.230469 13.308594 14.21875 13.136719 14.222656 13.027344 Z M 40.652344 20.316406 C 40.652344 20.347656 40.652344 20.382812 40.652344 20.414062 C 40.617188 21.226562 40.398438 21.988281 40.046875 22.71875 C 39.773438 23.289062 39.421875 23.808594 38.984375 24.269531 C 38.425781 24.863281 37.777344 25.324219 37.007812 25.601562 C 36.542969 25.765625 36.066406 25.847656 35.578125 25.820312 C 34.851562 25.78125 34.214844 25.519531 33.683594 25.023438 C 33.242188 24.613281 32.953125 24.109375 32.769531 23.542969 C 32.605469 23.035156 32.539062 22.511719 32.554688 21.980469 C 32.589844 20.808594 32.960938 19.742188 33.605469 18.765625 C 33.820312 18.4375 34.070312 18.132812 34.347656 17.851562 C 34.921875 17.28125 35.578125 16.84375 36.355469 16.59375 C 36.796875 16.453125 37.246094 16.386719 37.710938 16.425781 C 38.414062 16.480469 39.03125 16.746094 39.546875 17.234375 C 40.015625 17.671875 40.308594 18.214844 40.484375 18.828125 C 40.585938 19.164062 40.640625 19.507812 40.652344 19.859375 C 40.652344 19.890625 40.652344 19.925781 40.652344 19.957031 C 40.648438 20.078125 40.648438 20.195312 40.652344 20.316406 Z M 40.652344 20.316406 "/></g></svg>